<?xml version="1.0" standalone="no"?>
<!DOCTYPE svg PUBLIC "-//W3C//DTD SVG 20010904//EN"
 "http://www.w3.org/TR/2001/REC-SVG-20010904/DTD/svg10.dtd">
<svg version="1.0" xmlns="http://www.w3.org/2000/svg"
 width="512.000000pt" height="512.000000pt" viewBox="0 0 512.000000 512.000000"
 preserveAspectRatio="xMidYMid meet">
<metadata>
Created by potrace 1.14, written by Peter Selinger 2001-2017
</metadata>
<g transform="translate(0.000000,512.000000) scale(0.100000,-0.100000)"
fill="#000000" stroke="none">
<path d="M0 2560 l0 -2560 2560 0 2560 0 0 2560 0 2560 -2560 0 -2560 0 0
-2560z m1934 1811 c130 -35 220 -85 307 -171 169 -168 238 -372 239 -707 l0
-143 -264 0 -264 0 -5 163 c-5 179 -16 227 -68 290 -52 64 -99 82 -209 82 -78
0 -102 -4 -135 -22 -53 -28 -89 -68 -117 -128 -20 -44 -23 -65 -23 -185 0
-122 3 -143 28 -217 57 -165 165 -298 458 -565 369 -335 503 -525 577 -818 25
-99 27 -118 26 -325 0 -206 -2 -227 -27 -320 -79 -297 -254 -480 -533 -557
-68 -19 -106 -22 -274 -22 -174 -1 -204 1 -280 22 -237 65 -407 220 -489 447
-44 121 -61 232 -68 443 l-6 182 271 0 270 0 4 -193 c3 -187 4 -194 31 -249
53 -108 143 -155 283 -146 97 6 158 37 201 102 48 70 58 115 57 261 0 275 -83
431 -377 707 -380 357 -504 498 -596 678 -78 152 -106 254 -120 431 -17 214
14 422 88 574 96 201 253 330 467 384 113 29 121 29 304 26 131 -2 181 -7 244
-24z m2376 -276 l0 -255 -465 0 -465 0 0 -500 0 -500 365 0 365 0 0 -255 0
-255 -365 0 -365 0 0 -780 0 -780 -280 0 -280 0 0 1790 0 1790 745 0 745 0 0
-255z"/>
</g>
</svg>
