k<svg xmlns="http://www.w3.org/2000/svg" width="256" height="256" viewBox="0 0 100 100"><rect width="100" height="100" rx="0"/><path fill="#fff" d="M32.1 86q-8 0-12.1-4.55T15.9 68.4v-4h10.4v4.8q0 6.8 5.7 6.8 2.8 0 4.25-1.65T37.7 69q0-4.4-2-7.75t-7.4-8.05q-6.8-6-9.5-10.85T16.1 31.4q0-8.3 4.2-12.85T32.5 14q7.9 0 11.95 4.55T48.5 31.6v2.9H38.1v-3.6q0-3.6-1.4-5.25T32.6 24q-5.5 0-5.5 6.7 0 3.8 2.05 7.1t7.45 8q6.9 6 9.5 10.9t2.6 11.5q0 8.6-4.25 13.2T32.1 86M55 85V15h29.1v10H66v19.5h14.2v10H66V85z"/></svg>